# Blender 4.5.4 LTS
# www.blender.org
mtllib candy.mtl
o Plane
v 0.791498 0.622261 0.000000
v 0.261038 1.135309 0.276710
v -0.767534 0.631265 0.000000
v -0.223003 1.138105 0.276710
v 0.011982 0.626763 1.203915
v 0.019017 1.136707 0.650496
v 0.761710 -0.645863 -0.000000
v -0.797322 -0.636859 -0.000000
v -0.017806 -0.641361 1.203915
v 0.330779 -1.229122 0.222959
v -0.362079 -1.225120 0.222959
v -0.015650 -1.227121 0.757998
v 0.869148 -2.200901 -0.029803
v -0.823339 -2.191126 -0.029803
v 0.022904 -2.196013 1.277169
v 0.821207 2.187054 -0.005547
v -0.768676 2.196237 -0.005547
v 0.026266 2.191646 1.222193
v 0.026266 2.191646 1.304753
v -0.851186 2.196713 -0.050419
v 0.903718 2.186577 -0.050419
v 0.026266 2.191646 1.222193
v -0.768676 2.196237 -0.005547
v 0.821207 2.187054 -0.005547
v 0.022177 1.483714 0.772301
v -0.335818 1.485781 0.219400
v 0.380171 1.481646 0.219400
v 0.022904 -2.196013 1.434013
v 1.025898 -2.201806 -0.115049
v -0.980089 -2.190220 -0.115049
v 0.027817 -1.345344 0.753886
v 0.365835 -1.347296 0.231839
v -0.310200 -1.343392 0.231839
vn -0.7179 0.5165 0.4668
vn 0.7280 0.4995 0.4695
vn 0.0028 0.4769 -0.8790
vn -0.0000 -0.0000 -1.0000
vn -0.8392 0.0197 0.5434
vn 0.8392 -0.0197 0.5434
vn -0.0021 -0.3557 -0.9346
vn -0.7757 -0.3841 0.5008
vn 0.7756 -0.3805 0.5036
vn 0.0019 0.3295 -0.9442
vn -0.7926 0.3274 0.5144
vn 0.7768 0.3808 0.5015
vn -0.0017 -0.2962 -0.9551
vn 0.7933 -0.3248 0.5149
vn -0.7975 -0.3140 0.5152
vn -0.0000 -0.0000 1.0000
vn 0.0058 1.0000 -0.0000
vn 0.0017 0.3028 0.9530
vn -0.7915 0.3310 -0.5137
vn 0.7953 0.3219 -0.5137
vn -0.0017 -0.2940 0.9558
vn -0.0058 -1.0000 -0.0000
vn 0.7942 -0.3217 -0.5155
vn -0.7979 -0.3125 -0.5155
vt 0.529732 0.634923
vt 0.530385 0.745894
vt 0.304531 0.740920
vt 0.319841 0.634923
vt 0.741486 0.634923
vt 0.756252 0.740729
vt 0.958762 0.634923
vt 0.943452 0.740920
vt 0.734402 0.360970
vt 0.968194 0.360970
vt 0.329272 0.360970
vt 0.526841 0.360970
vt 0.717792 0.233015
vt 0.985522 0.233015
vt 0.346601 0.233015
vt 0.524601 0.233015
vt 0.725170 0.025920
vt 0.973409 0.025920
vt 0.334487 0.025920
vt 0.531863 0.025920
vt 0.950289 0.973289
vt 0.749081 0.973289
vt 0.530797 0.973289
vt 0.311367 0.973289
vt 0.717434 0.826984
vt 0.815324 0.827438
vt 0.609961 0.839269
vt 0.501863 0.827438
vt 0.502284 0.827021
vt 0.609938 0.840080
vt 0.717031 0.826519
vt 0.815745 0.827021
vt 0.044070 0.817022
vt 0.032752 0.969636
vt 0.202442 0.977944
vt 0.212894 0.832150
vt 0.402395 0.782120
vt 0.536523 0.842271
vt 0.402395 0.929118
vt 0.036559 0.648085
vt 0.216140 0.660699
vt 0.066727 0.480784
vt 0.236416 0.489093
vt 0.075487 0.024100
vt 0.070706 0.203238
vt 0.265577 0.215714
vt 0.270290 0.021290
vt 0.556242 0.166638
vt 0.674393 0.150065
vt 0.676280 0.148947
vt 0.556102 0.168590
vt 0.435211 0.150677
vt 0.433393 0.149673
vt 0.832428 0.150677
vt 0.830611 0.149673
vt 0.557636 0.150621
vt 0.725435 0.041972
vt 0.725435 0.259270
vt 0.086438 0.337607
vt 0.065215 0.474399
vt 0.260018 0.471589
vt 0.270250 0.340019
s 0
usemtl Material.001
f 5/1/1 6/2/1 4/3/1 3/4/1
f 1/5/2 2/6/2 6/2/2 5/1/2
f 1/5/3 3/7/3 4/8/3 2/6/3
f 3/7/4 1/5/4 7/9/4 8/10/4
f 5/1/5 3/4/5 8/11/5 9/12/5
f 1/5/6 5/1/6 9/12/6 7/9/6
f 8/10/7 7/9/7 10/13/7 11/14/7
f 9/12/8 8/11/8 11/15/8 12/16/8
f 7/9/9 9/12/9 12/16/9 10/13/9
f 11/14/10 10/13/10 29/17/10 30/18/10
f 12/16/11 11/15/11 30/19/11 28/20/11
f 10/13/12 12/16/12 28/20/12 29/17/12
f 2/6/13 4/8/13 20/21/13 21/22/13
f 6/2/14 2/6/14 21/22/14 19/23/14
f 4/3/15 6/2/15 19/23/15 20/24/15
f 16/25/16 17/26/16 23/26/16 24/25/16
f 18/27/17 17/28/17 20/29/17 19/30/17
f 16/25/17 18/27/17 19/30/17 21/31/17
f 17/26/17 16/25/17 21/31/17 20/32/17
f 24/33/18 23/34/18 26/35/18 27/36/18
f 18/27/16 16/25/16 24/25/16 22/27/16
f 17/28/16 18/27/16 22/27/16 23/28/16
f 25/37/17 27/38/17 26/39/17
f 22/40/19 24/33/19 27/36/19 25/41/19
f 23/42/20 22/40/20 25/41/20 26/43/20
f 14/44/21 13/45/21 32/46/21 33/47/21
f 15/48/22 13/49/22 29/50/22 28/51/22
f 14/52/22 15/48/22 28/51/22 30/53/22
f 13/49/22 14/54/22 30/55/22 29/50/22
f 31/56/22 33/57/22 32/58/22
f 15/59/23 14/60/23 33/61/23 31/62/23
f 13/45/24 15/59/24 31/62/24 32/46/24
