# Blender 4.5.4 LTS
# www.blender.org
mtllib pumpkincandy.mtl
o Cube
v 0.963740 0.190736 -0.091805
v 0.967303 0.190852 -0.009353
v 0.870645 0.187724 -0.091805
v 0.867083 0.187608 -0.009353
v 0.919630 0.209059 -0.000056
v 0.974381 0.210831 -0.045414
v 0.864879 0.207288 -0.045414
v 0.919630 0.209059 -0.090772
v 1.049760 -0.484792 -0.199599
v 1.049760 -0.484792 0.108770
v 0.741552 -0.494767 -0.199599
v 0.741552 -0.494767 0.108770
v 0.895583 -0.490523 0.166990
v 0.683305 -0.497870 -0.045414
v 1.107892 -0.484129 -0.045414
v 0.895583 -0.490523 -0.257819
v 0.963740 0.190736 -0.091805
v 0.967303 0.190852 -0.009353
v 0.870645 0.187724 -0.091805
v 0.867083 0.187608 -0.009353
v 0.838617 0.141696 0.026909
v 0.919630 0.209059 -0.000056
v 0.974381 0.210831 -0.045414
v 0.864879 0.207288 -0.045414
v 0.919630 0.209059 -0.090772
v 0.995870 0.146785 -0.117737
v 1.001445 0.146965 0.026909
v 0.844192 0.141876 -0.117737
v 0.920017 0.145283 0.053037
v 0.812732 0.141811 -0.045414
v 1.027303 0.148755 -0.045414
v 0.920017 0.145283 -0.143866
v 1.031865 0.027647 -0.158253
v 0.801555 0.020194 0.067425
v 1.034240 0.027724 0.067425
v 0.803930 0.020271 -0.158253
v 1.075889 -0.334325 -0.218754
v 1.075889 -0.334325 0.127925
v 0.729392 -0.345538 -0.218754
v 0.729392 -0.345538 0.127925
v 0.838617 0.141696 0.026909
v 0.995870 0.146785 -0.117737
v 1.001445 0.146965 0.026909
v 0.844192 0.141876 -0.117737
v 0.917898 0.023959 -0.200568
v 1.076235 0.029083 -0.045414
v 0.759560 0.018835 -0.045414
v 0.917897 0.023959 0.109739
v 0.902641 -0.339932 0.192927
v 0.664424 -0.347641 -0.045414
v 1.140858 -0.332223 -0.045414
v 0.902641 -0.339932 -0.283756
v 0.920017 0.145283 0.053037
v 0.812732 0.141811 -0.045414
v 1.027303 0.148755 -0.045414
v 0.920017 0.145283 -0.143866
v 1.049760 -0.484792 -0.199599
v 1.076729 -0.448216 -0.224949
v 1.049760 -0.484792 0.108770
v 1.076729 -0.448215 0.134121
v 0.741552 -0.494767 -0.199599
v 0.717844 -0.459856 -0.224951
v 0.741552 -0.494767 0.108770
v 0.717844 -0.459856 0.134122
v 0.897220 -0.455459 0.201833
v 0.895583 -0.490523 0.166990
v 0.650099 -0.463484 -0.045414
v 0.683305 -0.497870 -0.045414
v 1.144338 -0.447440 -0.045414
v 1.107892 -0.484129 -0.045414
v 0.897220 -0.455459 -0.292662
v 0.895583 -0.490523 -0.257819
vn -0.0323 0.9995 -0.0000
vn 0.3922 0.7698 0.5035
vn 0.3361 0.8337 -0.4382
vn -0.3588 0.8432 -0.4002
vn -0.4043 0.7922 0.4571
vn 0.0414 -0.9991 -0.0113
vn 0.0414 -0.9991 0.0113
vn 0.0233 -0.9997 -0.0113
vn 0.0233 -0.9997 0.0113
vn 0.0323 -0.9995 0.0022
vn 0.0323 -0.9995 -0.0022
vn 0.2756 0.6647 0.6944
vn -0.3057 0.6472 0.6984
vn -0.7233 0.6215 0.3010
vn -0.7341 0.5947 -0.3279
vn 0.6827 0.6357 -0.3601
vn 0.6679 0.6639 0.3363
vn -0.2705 0.6045 -0.7493
vn 0.2430 0.6204 -0.7457
vn 0.2915 0.3901 0.8734
vn -0.3134 0.3961 0.8630
vn -0.8715 0.3742 0.3170
vn -0.8554 0.3843 -0.3472
vn 0.8588 0.3662 -0.3583
vn 0.8758 0.3550 0.3270
vn -0.3241 0.3997 -0.8574
vn 0.3023 0.3936 -0.8682
vn -0.3452 0.2210 0.9121
vn 0.3353 0.1946 0.9218
vn 0.9233 0.1647 0.3471
vn 0.9202 0.1678 -0.3537
vn 0.3377 0.1956 -0.9207
vn -0.3476 0.2222 -0.9110
vn -0.9081 0.2388 -0.3440
vn -0.9112 0.2361 0.3377
vn 0.2817 -0.6807 0.6763
vn -0.2452 -0.6755 0.6954
vn -0.6914 -0.6683 0.2745
vn -0.6914 -0.6683 -0.2745
vn 0.6856 -0.6818 -0.2554
vn 0.6856 -0.6818 0.2554
vn -0.2452 -0.6755 -0.6954
vn 0.2817 -0.6807 -0.6763
vn 0.3499 0.0546 -0.9352
vn 0.9357 0.0272 -0.3518
vn 0.9357 0.0272 0.3518
vn 0.3499 0.0546 0.9352
vn -0.3531 0.0873 -0.9315
vn -0.9305 0.1140 -0.3481
vn -0.9305 0.1140 0.3481
vn -0.3531 0.0873 0.9315
vt 0.302829 0.128014
vt 0.203437 0.249241
vt 0.102878 0.128981
vt 0.110347 0.014891
vt 0.202270 0.007754
vt 0.315062 0.023421
vt 0.315062 0.245168
vt 0.112962 0.255349
vt 0.660245 0.181724
vt 0.660285 0.078866
vt 0.737492 0.011020
vt 0.840273 0.011025
vt 0.908196 0.088267
vt 0.830949 0.258972
vt 0.728125 0.258854
vt 0.908114 0.191013
vt 0.563403 0.914054
vt 0.578384 0.957500
vt 0.470164 0.975525
vt 0.453861 0.912388
vt 0.320303 0.954289
vt 0.332259 0.908837
vt 0.222540 0.973771
vt 0.222102 0.908951
vt 0.100634 0.954404
vt 0.106015 0.909016
vt 0.750752 0.913875
vt 0.751807 0.957386
vt 0.654678 0.977279
vt 0.654922 0.915825
vt 0.972996 0.909016
vt 0.967615 0.954404
vt 0.839931 0.975525
vt 0.856504 0.912388
vt 0.553892 0.796008
vt 0.446398 0.792281
vt 0.333662 0.788554
vt 0.221970 0.787209
vt 0.108577 0.788630
vt 0.757553 0.795932
vt 0.655010 0.797354
vt 0.975559 0.788630
vt 0.864021 0.792281
vt 0.327770 0.426488
vt 0.434820 0.432038
vt 0.544146 0.437589
vt 0.655069 0.439670
vt 0.766094 0.437589
vt 0.875633 0.432038
vt 0.982881 0.426488
vt 0.115900 0.426488
vt 0.221878 0.424407
vt 0.542075 0.324840
vt 0.431934 0.317670
vt 0.429805 0.282957
vt 0.540475 0.288630
vt 0.324546 0.278755
vt 0.325892 0.313317
vt 0.221870 0.309725
vt 0.221890 0.275684
vt 0.119148 0.278755
vt 0.117770 0.313317
vt 0.768172 0.324840
vt 0.655071 0.325608
vt 0.655043 0.289288
vt 0.769740 0.288630
vt 0.011544 0.317670
vt 0.013680 0.282957
vt 0.880661 0.282957
vt 0.878525 0.317670
vt 0.008652 0.432038
s 0
usemtl Material
f 8/1/1 7/2/1 5/3/1
f 5/3/2 2/4/2 6/5/2
f 6/5/3 1/6/3 8/1/3
f 8/1/4 3/7/4 7/2/4
f 7/2/5 4/8/5 5/3/5
f 5/3/1 6/5/1 8/1/1
f 16/9/6 9/10/6 15/11/6
f 15/11/7 10/12/7 13/13/7
f 14/14/8 11/15/8 16/9/8
f 13/13/9 12/16/9 14/14/9
f 15/11/10 13/13/10 14/14/10
f 14/14/11 16/9/11 15/11/11
f 27/17/12 18/18/12 22/19/12 29/20/12
f 29/20/13 22/19/13 20/21/13 21/22/13
f 21/22/14 20/21/14 24/23/14 30/24/14
f 30/24/15 24/23/15 19/25/15 28/26/15
f 26/27/16 17/28/16 23/29/16 31/30/16
f 31/30/17 23/29/17 18/18/17 27/17/17
f 28/31/18 19/32/18 25/33/18 32/34/18
f 32/34/19 25/33/19 17/28/19 26/27/19
f 35/35/20 43/17/20 53/20/20 48/36/20
f 48/36/21 53/20/21 41/22/21 34/37/21
f 34/37/22 41/22/22 54/24/22 47/38/22
f 47/38/23 54/24/23 44/26/23 36/39/23
f 33/40/24 42/27/24 55/30/24 46/41/24
f 46/41/25 55/30/25 43/17/25 35/35/25
f 36/42/26 44/31/26 56/34/26 45/43/26
f 45/43/27 56/34/27 42/27/27 33/40/27
f 34/37/28 40/44/28 49/45/28 48/36/28
f 48/36/29 49/45/29 38/46/29 35/35/29
f 35/35/30 38/46/30 51/47/30 46/41/30
f 46/41/31 51/47/31 37/48/31 33/40/31
f 33/40/32 37/48/32 52/49/32 45/43/32
f 45/43/33 52/49/33 39/50/33 36/42/33
f 36/39/34 39/51/34 50/52/34 47/38/34
f 47/38/35 50/52/35 40/44/35 34/37/35
f 60/53/36 65/54/36 66/55/36 59/56/36
f 63/57/37 66/55/37 65/54/37 64/58/37
f 64/58/38 67/59/38 68/60/38 63/57/38
f 61/61/39 68/60/39 67/59/39 62/62/39
f 58/63/40 69/64/40 70/65/40 57/66/40
f 59/56/41 70/65/41 69/64/41 60/53/41
f 62/62/42 71/67/42 72/68/42 61/61/42
f 57/66/43 72/69/43 71/70/43 58/63/43
f 71/70/44 52/49/44 37/48/44 58/63/44
f 58/63/45 37/48/45 51/47/45 69/64/45
f 69/64/46 51/47/46 38/46/46 60/53/46
f 60/53/47 38/46/47 49/45/47 65/54/47
f 62/62/48 39/51/48 52/71/48 71/67/48
f 67/59/49 50/52/49 39/51/49 62/62/49
f 64/58/50 40/44/50 50/52/50 67/59/50
f 65/54/51 49/45/51 40/44/51 64/58/51
