# Blender 4.5.4 LTS
# www.blender.org
mtllib pumpkincandy3x.mtl
o Cube.003
v -0.023824 0.442875 -0.034010
v -0.021784 0.440611 0.048462
v -0.116893 0.439586 -0.035824
v -0.121975 0.437070 0.046509
v -0.069684 0.458399 0.057396
v -0.014112 0.461648 0.013131
v -0.123583 0.457780 0.010998
v -0.068011 0.461029 -0.033266
v 0.066544 -0.228985 -0.159690
v 0.060855 -0.237925 0.148497
v -0.241575 -0.239874 -0.165693
v -0.247263 -0.248814 0.142494
v -0.094348 -0.245801 0.203659
v -0.302645 -0.247619 -0.012769
v 0.121819 -0.232618 -0.004499
v -0.086512 -0.233485 -0.220900
v -0.023824 0.442875 -0.034010
v -0.021784 0.440611 0.048462
v -0.116893 0.439586 -0.035824
v -0.121975 0.437070 0.046509
v -0.150943 0.390041 0.080894
v -0.069684 0.458399 0.057396
v -0.014112 0.461648 0.013131
v -0.123583 0.457780 0.010998
v -0.068011 0.461029 -0.033266
v 0.008933 0.399790 -0.060604
v 0.011837 0.395793 0.084066
v -0.142702 0.394431 -0.063558
v -0.070052 0.393112 0.108620
v -0.175490 0.392176 0.008137
v 0.039018 0.399756 0.012316
v -0.066420 0.398820 -0.088167
v 0.046087 0.281985 -0.103875
v -0.188319 0.267306 0.117184
v 0.044298 0.275526 0.121716
v -0.181781 0.273933 -0.108315
v 0.092493 -0.077949 -0.173996
v 0.086098 -0.087999 0.172478
v -0.253904 -0.090190 -0.180745
v -0.260299 -0.100240 0.165729
v -0.150943 0.390041 0.080894
v 0.008933 0.399790 -0.060604
v 0.011837 0.395793 0.084066
v -0.142702 0.394431 -0.063558
v -0.067066 0.279185 -0.148384
v 0.088363 0.280281 0.009761
v -0.228220 0.269094 0.003593
v -0.072791 0.270189 0.161739
v -0.088300 -0.096004 0.234068
v -0.322051 -0.097510 -0.008773
v 0.154245 -0.080679 0.000507
v -0.079506 -0.082185 -0.242334
v -0.070052 0.393112 0.108620
v -0.175490 0.392176 0.008137
v 0.039018 0.399756 0.012316
v -0.066420 0.398820 -0.088167
v 0.066544 -0.228985 -0.159690
v 0.093847 -0.191608 -0.183467
v 0.060855 -0.237925 0.148497
v 0.087223 -0.202018 0.175391
v -0.241575 -0.239874 -0.165693
v -0.264933 -0.204314 -0.190459
v -0.247263 -0.248814 0.142494
v -0.271557 -0.214724 0.168401
v -0.093477 -0.211757 0.239526
v -0.094348 -0.245801 0.203659
v -0.335966 -0.213347 -0.012390
v -0.302645 -0.247619 -0.012769
v 0.158130 -0.195837 -0.002762
v 0.121819 -0.232618 -0.004499
v -0.084355 -0.197421 -0.254677
v -0.086512 -0.233485 -0.220900
v 0.400580 0.451130 -0.309298
v 0.394954 0.436609 -0.228252
v 0.308194 0.447259 -0.320501
v 0.295497 0.432442 -0.240313
v 0.346020 0.452408 -0.221430
v 0.405395 0.462754 -0.259190
v 0.296726 0.458200 -0.272368
v 0.356100 0.468546 -0.310128
v 0.518217 -0.193576 -0.523482
v 0.483953 -0.248436 -0.221972
v 0.212355 -0.206392 -0.560573
v 0.178091 -0.261252 -0.259063
v 0.324503 -0.265934 -0.183731
v 0.137456 -0.237442 -0.417041
v 0.558812 -0.219786 -0.365945
v 0.371705 -0.190359 -0.599091
v 0.400580 0.451130 -0.309298
v 0.394954 0.436609 -0.228252
v 0.308194 0.447259 -0.320501
v 0.295497 0.432442 -0.240313
v 0.264565 0.380536 -0.216185
v 0.346020 0.452408 -0.221430
v 0.405395 0.462754 -0.259190
v 0.296726 0.458200 -0.272368
v 0.356100 0.468546 -0.310128
v 0.436694 0.412808 -0.338690
v 0.426153 0.387306 -0.196590
v 0.286169 0.406501 -0.356943
v 0.342414 0.380210 -0.180675
v 0.246884 0.393264 -0.289847
v 0.459822 0.402186 -0.264025
v 0.364292 0.415240 -0.373198
v 0.480515 0.303135 -0.395102
v 0.226883 0.253410 -0.202161
v 0.457796 0.263085 -0.174159
v 0.254315 0.293657 -0.422533
v 0.541800 -0.041854 -0.512786
v 0.503279 -0.103530 -0.173819
v 0.197939 -0.056262 -0.554485
v 0.159419 -0.117937 -0.215518
v 0.264565 0.380536 -0.216185
v 0.436694 0.412808 -0.338690
v 0.426153 0.387306 -0.196590
v 0.286169 0.406501 -0.356943
v 0.372117 0.305924 -0.450191
v 0.512010 0.284905 -0.279434
v 0.197745 0.271738 -0.317544
v 0.337638 0.250719 -0.146787
v 0.324126 -0.122298 -0.131112
v 0.114205 -0.089801 -0.392820
v 0.587013 -0.069991 -0.335484
v 0.377092 -0.037494 -0.597192
v 0.342414 0.380210 -0.180675
v 0.246884 0.393264 -0.289847
v 0.459822 0.402186 -0.264025
v 0.364292 0.415240 -0.373198
v 0.518217 -0.193576 -0.523482
v 0.546730 -0.152812 -0.538751
v 0.483953 -0.248436 -0.221972
v 0.506832 -0.216692 -0.187669
v 0.212355 -0.206392 -0.560573
v 0.190577 -0.167760 -0.581947
v 0.178091 -0.261252 -0.259063
v 0.150679 -0.231641 -0.230862
v 0.321209 -0.237614 -0.143317
v 0.324503 -0.265934 -0.183731
v 0.103441 -0.203930 -0.414809
v 0.137456 -0.237442 -0.417041
v 0.593918 -0.183330 -0.355322
v 0.558812 -0.219786 -0.365945
v 0.376154 -0.149641 -0.626812
v 0.371705 -0.190359 -0.599091
v 0.498763 0.564813 0.102787
v 0.507246 0.572507 0.184517
v 0.405814 0.563039 0.108540
v 0.407184 0.570598 0.190710
v 0.460355 0.592123 0.194864
v 0.512310 0.588971 0.146399
v 0.402980 0.586884 0.153165
v 0.454935 0.583732 0.104700
v 0.573018 -0.118864 0.053491
v 0.591442 -0.090342 0.359986
v 0.265293 -0.124737 0.072536
v 0.283717 -0.096215 0.379031
v 0.440980 -0.088633 0.427448
v 0.216340 -0.112798 0.229496
v 0.640262 -0.104708 0.203260
v 0.415599 -0.127925 0.005221
v 0.498763 0.564813 0.102787
v 0.507246 0.572507 0.184517
v 0.405814 0.563039 0.108540
v 0.407184 0.570598 0.190710
v 0.380586 0.528615 0.232699
v 0.460355 0.592123 0.194864
v 0.512310 0.588971 0.146399
v 0.402980 0.586884 0.153165
v 0.454935 0.583732 0.104700
v 0.528950 0.518232 0.079216
v 0.543157 0.531717 0.222638
v 0.377509 0.515342 0.088588
v 0.463426 0.533531 0.253551
v 0.350426 0.522381 0.162327
v 0.564661 0.526469 0.149068
v 0.451661 0.515319 0.057844
v 0.561546 0.395394 0.047924
v 0.345082 0.411880 0.286461
v 0.577401 0.416313 0.272083
v 0.333969 0.391052 0.062008
v 0.599107 0.028829 0.018907
v 0.619820 0.060894 0.363478
v 0.253153 0.022228 0.040318
v 0.273866 0.054293 0.384889
v 0.380586 0.528615 0.232699
v 0.528950 0.518232 0.079216
v 0.543157 0.531717 0.222638
v 0.377509 0.515342 0.088588
v 0.445230 0.389309 0.012909
v 0.612589 0.406676 0.157335
v 0.296410 0.400643 0.176903
v 0.463770 0.418010 0.321329
v 0.450727 0.063606 0.438790
v 0.198643 0.037023 0.216618
v 0.674330 0.046100 0.187178
v 0.422246 0.019516 -0.034995
v 0.463426 0.533531 0.253551
v 0.350426 0.522381 0.162327
v 0.564661 0.526469 0.149068
v 0.451661 0.515319 0.057844
v 0.573018 -0.118864 0.053491
v 0.598703 -0.085147 0.023304
v 0.591442 -0.090342 0.359986
v 0.620157 -0.051936 0.380191
v 0.265293 -0.124737 0.072536
v 0.240381 -0.092011 0.045482
v 0.283717 -0.096215 0.379031
v 0.261835 -0.058799 0.402371
v 0.444965 -0.050521 0.458717
v 0.440980 -0.088633 0.427448
v 0.183458 -0.078125 0.228246
v 0.216340 -0.112798 0.229496
v 0.676922 -0.068659 0.197701
v 0.640262 -0.104708 0.203260
v 0.415420 -0.096258 -0.032771
v 0.415599 -0.127925 0.005221
vn -0.0359 0.9990 0.0283
vn 0.3802 0.7561 0.5328
vn 0.3411 0.8470 -0.4076
vn -0.3544 0.8534 -0.3822
vn -0.4154 0.7775 0.4722
vn 0.0451 -0.9982 -0.0394
vn 0.0447 -0.9989 -0.0168
vn 0.0270 -0.9988 -0.0398
vn 0.0266 -0.9995 -0.0172
vn 0.0358 -0.9990 -0.0261
vn 0.0359 -0.9989 -0.0306
vn 0.2604 0.6451 0.7183
vn -0.3208 0.6257 0.7110
vn -0.7309 0.6103 0.3054
vn -0.7300 0.6017 -0.3241
vn 0.6870 0.6480 -0.3289
vn 0.6593 0.6559 0.3677
vn -0.2588 0.6251 -0.7364
vn 0.2545 0.6425 -0.7228
vn 0.2740 0.3655 0.8896
vn -0.3307 0.3700 0.8682
vn -0.8785 0.3622 0.3115
vn -0.8502 0.3917 -0.3518
vn 0.8640 0.3790 -0.3316
vn 0.8684 0.3480 0.3533
vn -0.3097 0.4234 -0.8514
vn 0.3169 0.4195 -0.8507
vn -0.3627 0.1934 0.9116
vn 0.3175 0.1688 0.9331
vn 0.9161 0.1573 0.3688
vn 0.9260 0.1807 -0.3315
vn 0.3539 0.2233 -0.9082
vn -0.3315 0.2474 -0.9104
vn -0.9024 0.2460 -0.3537
vn -0.9181 0.2235 0.3274
vn 0.2716 -0.6992 0.6614
vn -0.2556 -0.6961 0.6709
vn -0.6940 -0.6780 0.2422
vn -0.6839 -0.6621 -0.3065
vn 0.6926 -0.6720 -0.2622
vn 0.6831 -0.6868 0.2482
vn -0.2299 -0.6558 -0.7191
vn 0.2965 -0.6599 -0.6903
vn 0.3669 0.0827 -0.9266
vn 0.9419 0.0401 -0.3334
vn 0.9289 0.0197 0.3697
vn 0.3324 0.0285 0.9427
vn -0.3361 0.1132 -0.9350
vn -0.9243 0.1212 -0.3619
vn -0.9372 0.1011 0.3339
vn -0.3705 0.0592 0.9269
vn -0.0620 0.9832 0.1718
vn 0.3106 0.6718 0.6725
vn 0.3576 0.9016 -0.2435
vn -0.3372 0.8975 -0.2844
vn -0.4761 0.6943 0.5397
vn 0.0723 -0.9807 -0.1818
vn 0.0698 -0.9847 -0.1597
vn 0.0543 -0.9814 -0.1840
vn 0.0518 -0.9855 -0.1618
vn 0.0618 -0.9836 -0.1696
vn 0.0623 -0.9828 -0.1740
vn 0.1768 0.5332 0.8273
vn -0.4006 0.5096 0.7615
vn -0.7706 0.5509 0.3205
vn -0.7106 0.6363 -0.3003
vn 0.6992 0.6963 -0.1622
vn 0.6063 0.5999 0.5220
vn -0.2035 0.7255 -0.6575
vn 0.3057 0.7455 -0.5923
vn 0.1809 0.2313 0.9559
vn -0.4191 0.2332 0.8775
vn -0.9121 0.3033 0.2757
vn -0.8227 0.4316 -0.3701
vn 0.8819 0.4324 -0.1876
vn 0.8230 0.2997 0.4825
vn -0.2387 0.5427 -0.8053
vn 0.3850 0.5447 -0.7451
vn -0.4508 0.0518 0.8911
vn 0.2248 0.0308 0.9739
vn 0.8736 0.1093 0.4741
vn 0.9484 0.2370 -0.2108
vn 0.4319 0.3596 -0.8271
vn -0.2507 0.3773 -0.8915
vn -0.8710 0.2874 -0.3985
vn -0.9497 0.1634 0.2672
vn 0.2250 -0.7874 0.5740
vn -0.3006 -0.7908 0.5332
vn -0.6973 -0.7132 0.0717
vn -0.6363 -0.6155 -0.4651
vn 0.7298 -0.6187 -0.2908
vn 0.6730 -0.7096 0.2086
vn -0.1460 -0.5434 -0.8267
vn 0.3753 -0.5467 -0.7485
vn 0.4498 0.2235 -0.8647
vn 0.9678 0.0984 -0.2319
vn 0.8896 -0.0267 0.4560
vn 0.2420 -0.1093 0.9641
vn -0.2498 0.2482 -0.9360
vn -0.8891 0.1650 -0.4270
vn -0.9664 0.0412 0.2537
vn -0.4568 -0.0833 0.8856
vn -0.0246 0.9955 -0.0912
vn 0.4275 0.8079 0.4057
vn 0.3156 0.7851 -0.5329
vn -0.3757 0.8073 -0.4552
vn -0.3702 0.8364 0.4043
vn 0.0330 -0.9963 0.0794
vn 0.0344 -0.9942 0.1018
vn 0.0149 -0.9966 0.0805
vn 0.0162 -0.9946 0.1030
vn 0.0248 -0.9953 0.0934
vn 0.0245 -0.9957 0.0889
vn 0.3217 0.7224 0.6121
vn -0.2584 0.7130 0.6518
vn -0.6993 0.6561 0.2838
vn -0.7478 0.5714 -0.3381
vn 0.6648 0.5907 -0.4573
vn 0.6919 0.6833 0.2332
vn -0.3101 0.5361 -0.7851
vn 0.2027 0.5455 -0.8132
vn 0.3462 0.4654 0.8146
vn -0.2583 0.4783 0.8393
vn -0.8481 0.4133 0.3314
vn -0.8717 0.3618 -0.3306
vn 0.8386 0.3201 -0.4407
vn 0.8965 0.3722 0.2405
vn -0.3717 0.3229 -0.8704
vn 0.2529 0.3076 -0.9173
vn -0.2884 0.3089 0.9063
vn 0.3913 0.2746 0.8783
vn 0.9436 0.1839 0.2754
vn 0.8987 0.1222 -0.4212
vn 0.2836 0.1052 -0.9532
vn -0.3997 0.1415 -0.9057
vn -0.9252 0.2179 -0.3108
vn -0.8875 0.2783 0.3672
vn 0.3164 -0.6189 0.7190
vn -0.2083 -0.6050 0.7685
vn -0.6789 -0.6309 0.3757
vn -0.7117 -0.6816 -0.1700
vn 0.6638 -0.7114 -0.2306
vn 0.6944 -0.6642 0.2770
vn -0.2914 -0.7337 -0.6139
vn 0.2356 -0.7440 -0.6253
vn 0.2938 -0.0368 -0.9552
vn 0.9132 -0.0178 -0.4072
vn 0.9552 0.0473 0.2921
vn 0.4055 0.1362 0.9039
vn -0.4074 0.0054 -0.9132
vn -0.9487 0.0935 -0.3019
vn -0.9071 0.1579 0.3901
vn -0.2961 0.1777 0.9385
vt 0.302829 0.128014
vt 0.203437 0.249241
vt 0.102878 0.128981
vt 0.110347 0.014891
vt 0.202270 0.007754
vt 0.315062 0.023421
vt 0.315062 0.245168
vt 0.112962 0.255349
vt 0.660245 0.181724
vt 0.660285 0.078866
vt 0.737492 0.011020
vt 0.840273 0.011025
vt 0.908196 0.088267
vt 0.830949 0.258972
vt 0.728125 0.258854
vt 0.908114 0.191013
vt 0.563403 0.914054
vt 0.578384 0.957500
vt 0.470164 0.975525
vt 0.453861 0.912388
vt 0.320303 0.954289
vt 0.332259 0.908837
vt 0.222540 0.973771
vt 0.222102 0.908951
vt 0.100634 0.954404
vt 0.106015 0.909016
vt 0.750752 0.913875
vt 0.751807 0.957386
vt 0.654678 0.977279
vt 0.654922 0.915825
vt 0.972996 0.909016
vt 0.967615 0.954404
vt 0.839931 0.975525
vt 0.856504 0.912388
vt 0.553892 0.796008
vt 0.446398 0.792281
vt 0.333662 0.788554
vt 0.221970 0.787209
vt 0.108577 0.788630
vt 0.757553 0.795932
vt 0.655010 0.797354
vt 0.975559 0.788630
vt 0.864021 0.792281
vt 0.327770 0.426488
vt 0.434820 0.432038
vt 0.544146 0.437589
vt 0.655069 0.439670
vt 0.766094 0.437589
vt 0.875633 0.432038
vt 0.982881 0.426488
vt 0.115900 0.426488
vt 0.221878 0.424407
vt 0.542075 0.324840
vt 0.431934 0.317670
vt 0.429805 0.282957
vt 0.540475 0.288630
vt 0.324546 0.278755
vt 0.325892 0.313317
vt 0.221870 0.309725
vt 0.221890 0.275684
vt 0.119148 0.278755
vt 0.117770 0.313317
vt 0.768172 0.324840
vt 0.655071 0.325608
vt 0.655043 0.289288
vt 0.769740 0.288630
vt 0.011544 0.317670
vt 0.013680 0.282957
vt 0.880661 0.282957
vt 0.878525 0.317670
vt 0.008652 0.432038
s 0
usemtl Material.003
f 8/1/1 7/2/1 5/3/1
f 5/3/2 2/4/2 6/5/2
f 6/5/3 1/6/3 8/1/3
f 8/1/4 3/7/4 7/2/4
f 7/2/5 4/8/5 5/3/5
f 5/3/1 6/5/1 8/1/1
f 16/9/6 9/10/6 15/11/6
f 15/11/7 10/12/7 13/13/7
f 14/14/8 11/15/8 16/9/8
f 13/13/9 12/16/9 14/14/9
f 15/11/10 13/13/10 14/14/10
f 14/14/11 16/9/11 15/11/11
f 27/17/12 18/18/12 22/19/12 29/20/12
f 29/20/13 22/19/13 20/21/13 21/22/13
f 21/22/14 20/21/14 24/23/14 30/24/14
f 30/24/15 24/23/15 19/25/15 28/26/15
f 26/27/16 17/28/16 23/29/16 31/30/16
f 31/30/17 23/29/17 18/18/17 27/17/17
f 28/31/18 19/32/18 25/33/18 32/34/18
f 32/34/19 25/33/19 17/28/19 26/27/19
f 35/35/20 43/17/20 53/20/20 48/36/20
f 48/36/21 53/20/21 41/22/21 34/37/21
f 34/37/22 41/22/22 54/24/22 47/38/22
f 47/38/23 54/24/23 44/26/23 36/39/23
f 33/40/24 42/27/24 55/30/24 46/41/24
f 46/41/25 55/30/25 43/17/25 35/35/25
f 36/42/26 44/31/26 56/34/26 45/43/26
f 45/43/27 56/34/27 42/27/27 33/40/27
f 34/37/28 40/44/28 49/45/28 48/36/28
f 48/36/29 49/45/29 38/46/29 35/35/29
f 35/35/30 38/46/30 51/47/30 46/41/30
f 46/41/31 51/47/31 37/48/31 33/40/31
f 33/40/32 37/48/32 52/49/32 45/43/32
f 45/43/33 52/49/33 39/50/33 36/42/33
f 36/39/34 39/51/34 50/52/34 47/38/34
f 47/38/35 50/52/35 40/44/35 34/37/35
f 60/53/36 65/54/36 66/55/36 59/56/36
f 63/57/37 66/55/37 65/54/37 64/58/37
f 64/58/38 67/59/38 68/60/38 63/57/38
f 61/61/39 68/60/39 67/59/39 62/62/39
f 58/63/40 69/64/40 70/65/40 57/66/40
f 59/56/41 70/65/41 69/64/41 60/53/41
f 62/62/42 71/67/42 72/68/42 61/61/42
f 57/66/43 72/69/43 71/70/43 58/63/43
f 71/70/44 52/49/44 37/48/44 58/63/44
f 58/63/45 37/48/45 51/47/45 69/64/45
f 69/64/46 51/47/46 38/46/46 60/53/46
f 60/53/47 38/46/47 49/45/47 65/54/47
f 62/62/48 39/51/48 52/71/48 71/67/48
f 67/59/49 50/52/49 39/51/49 62/62/49
f 64/58/50 40/44/50 50/52/50 67/59/50
f 65/54/51 49/45/51 40/44/51 64/58/51
usemtl Material.001
f 80/1/52 79/2/52 77/3/52
f 77/3/53 74/4/53 78/5/53
f 78/5/54 73/6/54 80/1/54
f 80/1/55 75/7/55 79/2/55
f 79/2/56 76/8/56 77/3/56
f 77/3/52 78/5/52 80/1/52
f 88/9/57 81/10/57 87/11/57
f 87/11/58 82/12/58 85/13/58
f 86/14/59 83/15/59 88/9/59
f 85/13/60 84/16/60 86/14/60
f 87/11/61 85/13/61 86/14/61
f 86/14/62 88/9/62 87/11/62
f 99/17/63 90/18/63 94/19/63 101/20/63
f 101/20/64 94/19/64 92/21/64 93/22/64
f 93/22/65 92/21/65 96/23/65 102/24/65
f 102/24/66 96/23/66 91/25/66 100/26/66
f 98/27/67 89/28/67 95/29/67 103/30/67
f 103/30/68 95/29/68 90/18/68 99/17/68
f 100/31/69 91/32/69 97/33/69 104/34/69
f 104/34/70 97/33/70 89/28/70 98/27/70
f 107/35/71 115/17/71 125/20/71 120/36/71
f 120/36/72 125/20/72 113/22/72 106/37/72
f 106/37/73 113/22/73 126/24/73 119/38/73
f 119/38/74 126/24/74 116/26/74 108/39/74
f 105/40/75 114/27/75 127/30/75 118/41/75
f 118/41/76 127/30/76 115/17/76 107/35/76
f 108/42/77 116/31/77 128/34/77 117/43/77
f 117/43/78 128/34/78 114/27/78 105/40/78
f 106/37/79 112/44/79 121/45/79 120/36/79
f 120/36/80 121/45/80 110/46/80 107/35/80
f 107/35/81 110/46/81 123/47/81 118/41/81
f 118/41/82 123/47/82 109/48/82 105/40/82
f 105/40/83 109/48/83 124/49/83 117/43/83
f 117/43/84 124/49/84 111/50/84 108/42/84
f 108/39/85 111/51/85 122/52/85 119/38/85
f 119/38/86 122/52/86 112/44/86 106/37/86
f 132/53/87 137/54/87 138/55/87 131/56/87
f 135/57/88 138/55/88 137/54/88 136/58/88
f 136/58/89 139/59/89 140/60/89 135/57/89
f 133/61/90 140/60/90 139/59/90 134/62/90
f 130/63/91 141/64/91 142/65/91 129/66/91
f 131/56/92 142/65/92 141/64/92 132/53/92
f 134/62/93 143/67/93 144/68/93 133/61/93
f 129/66/94 144/69/94 143/70/94 130/63/94
f 143/70/95 124/49/95 109/48/95 130/63/95
f 130/63/96 109/48/96 123/47/96 141/64/96
f 141/64/97 123/47/97 110/46/97 132/53/97
f 132/53/98 110/46/98 121/45/98 137/54/98
f 134/62/99 111/51/99 124/71/99 143/67/99
f 139/59/100 122/52/100 111/51/100 134/62/100
f 136/58/101 112/44/101 122/52/101 139/59/101
f 137/54/102 121/45/102 112/44/102 136/58/102
usemtl Material.002
f 152/1/103 151/2/103 149/3/103
f 149/3/104 146/4/104 150/5/104
f 150/5/105 145/6/105 152/1/105
f 152/1/106 147/7/106 151/2/106
f 151/2/107 148/8/107 149/3/107
f 149/3/103 150/5/103 152/1/103
f 160/9/108 153/10/108 159/11/108
f 159/11/109 154/12/109 157/13/109
f 158/14/110 155/15/110 160/9/110
f 157/13/111 156/16/111 158/14/111
f 159/11/112 157/13/112 158/14/112
f 158/14/113 160/9/113 159/11/113
f 171/17/114 162/18/114 166/19/114 173/20/114
f 173/20/115 166/19/115 164/21/115 165/22/115
f 165/22/116 164/21/116 168/23/116 174/24/116
f 174/24/117 168/23/117 163/25/117 172/26/117
f 170/27/118 161/28/118 167/29/118 175/30/118
f 175/30/119 167/29/119 162/18/119 171/17/119
f 172/31/120 163/32/120 169/33/120 176/34/120
f 176/34/121 169/33/121 161/28/121 170/27/121
f 179/35/122 187/17/122 197/20/122 192/36/122
f 192/36/123 197/20/123 185/22/123 178/37/123
f 178/37/124 185/22/124 198/24/124 191/38/124
f 191/38/125 198/24/125 188/26/125 180/39/125
f 177/40/126 186/27/126 199/30/126 190/41/126
f 190/41/127 199/30/127 187/17/127 179/35/127
f 180/42/128 188/31/128 200/34/128 189/43/128
f 189/43/129 200/34/129 186/27/129 177/40/129
f 178/37/130 184/44/130 193/45/130 192/36/130
f 192/36/131 193/45/131 182/46/131 179/35/131
f 179/35/132 182/46/132 195/47/132 190/41/132
f 190/41/133 195/47/133 181/48/133 177/40/133
f 177/40/134 181/48/134 196/49/134 189/43/134
f 189/43/135 196/49/135 183/50/135 180/42/135
f 180/39/136 183/51/136 194/52/136 191/38/136
f 191/38/137 194/52/137 184/44/137 178/37/137
f 204/53/138 209/54/138 210/55/138 203/56/138
f 207/57/139 210/55/139 209/54/139 208/58/139
f 208/58/140 211/59/140 212/60/140 207/57/140
f 205/61/141 212/60/141 211/59/141 206/62/141
f 202/63/142 213/64/142 214/65/142 201/66/142
f 203/56/143 214/65/143 213/64/143 204/53/143
f 206/62/144 215/67/144 216/68/144 205/61/144
f 201/66/145 216/69/145 215/70/145 202/63/145
f 215/70/146 196/49/146 181/48/146 202/63/146
f 202/63/147 181/48/147 195/47/147 213/64/147
f 213/64/148 195/47/148 182/46/148 204/53/148
f 204/53/149 182/46/149 193/45/149 209/54/149
f 206/62/150 183/51/150 196/71/150 215/67/150
f 211/59/151 194/52/151 183/51/151 206/62/151
f 208/58/152 184/44/152 194/52/152 211/59/152
f 209/54/153 193/45/153 184/44/153 208/58/153
